<svg xmlns="http://www.w3.org/2000/svg" viewBox="0 0 24 24" width="24" height="24" preserveAspectRatio="xMidYMid slice" style="width: 100%; height: 100%; transform: translate3d(0px, 0px, 0px);"><defs><clipPath id="__lottie_element_56"><rect width="24" height="24" x="0" y="0"></rect></clipPath><clipPath id="__lottie_element_58"><path d="M0,0 L24,0 L24,24 L0,24z"></path></clipPath><mask id="__lottie_element_59"><path fill="#ffffff" clip-rule="nonzero" d="M0,0  h24 v24 h-24 v-24  M12.00100040435791,14.50100040435791 C12.00100040435791,14.50100040435791 12.00100040435791,14.49899959564209 12.00100040435791,14.49899959564209 C12.00100040435791,14.49899959564209 12.00100040435791,14.49899959564209 12.00100040435791,14.49899959564209 C12.00100040435791,14.49899959564209 11.99899959564209,14.49899959564209 11.99899959564209,14.49899959564209 C11.99899959564209,14.49899959564209 11.99899959564209,14.49899959564209 11.99899959564209,14.49899959564209 C11.99899959564209,14.49899959564209 11.99899959564209,14.50100040435791 11.99899959564209,14.50100040435791 C11.99899959564209,14.50100040435791 11.99899959564209,14.50100040435791 11.99899959564209,14.50100040435791 C11.99899959564209,14.50100040435791 12.00100040435791,14.50100040435791 12.00100040435791,14.50100040435791 C12.00100040435791,14.50100040435791 12.00100040435791,14.50100040435791 12.00100040435791,14.50100040435791" fill-opacity="1"></path></mask><clipPath id="__lottie_element_65"><path d="M0,0 L24,0 L24,24 L0,24z"></path></clipPath><clipPath id="__lottie_element_66"><path fill="#ffffff" clip-rule="nonzero" d=" M12.00100040435791,14.50100040435791 C12.00100040435791,14.50100040435791 12.00100040435791,14.49899959564209 12.00100040435791,14.49899959564209 C12.00100040435791,14.49899959564209 12.00100040435791,14.49899959564209 12.00100040435791,14.49899959564209 C12.00100040435791,14.49899959564209 11.99899959564209,14.49899959564209 11.99899959564209,14.49899959564209 C11.99899959564209,14.49899959564209 11.99899959564209,14.49899959564209 11.99899959564209,14.49899959564209 C11.99899959564209,14.49899959564209 11.99899959564209,14.50100040435791 11.99899959564209,14.50100040435791 C11.99899959564209,14.50100040435791 11.99899959564209,14.50100040435791 11.99899959564209,14.50100040435791 C11.99899959564209,14.50100040435791 12.00100040435791,14.50100040435791 12.00100040435791,14.50100040435791 C12.00100040435791,14.50100040435791 12.00100040435791,14.50100040435791 12.00100040435791,14.50100040435791" fill-opacity="1"></path></clipPath><linearGradient id="__lottie_element_71" spreadMethod="pad" gradientUnits="userSpaceOnUse" x1="9.053999900817871" y1="7.376999855041504" x2="-7.964000225067139" y2="-7.243000030517578"><stop offset="0%" stop-color="rgb(55,150,181)"></stop><stop offset="50%" stop-color="rgb(78,155,180)"></stop><stop offset="100%" stop-color="rgb(78,155,180)"></stop></linearGradient><linearGradient id="__lottie_element_72" spreadMethod="pad" gradientUnits="userSpaceOnUse" x1="9.053999900817871" y1="7.376999855041504" x2="-7.964000225067139" y2="-7.243000030517578"><stop offset="0%" stop-color="rgb(55,150,181)"></stop><stop offset="50%" stop-color="rgb(78,155,180)"></stop><stop offset="100%" stop-color="rgb(118,174,192)"></stop></linearGradient></defs><g clip-path="url(#__lottie_element_56)"><g clip-path="url(#__lottie_element_65)" transform="matrix(1,0,0,1,0,0)" opacity="1" style="display: block;"><g clip-path="url(#__lottie_element_66)"><g transform="matrix(1,0,0,1,0,0)" opacity="1" style="display: block;"><g opacity="1" transform="matrix(1,0,0,1,12,14.524999618530273)"><path fill="url(#__lottie_element_71)" fill-opacity="1" d=" M8.470000267028809,-6.980000019073486 C8.190999984741211,-7.309999942779541 7.769999980926514,-7.5 7.329999923706055,-7.5 C7.329999923706055,-7.5 5,-7.5 5,-7.5 C5,-7.5 4,-7.5 4,-7.5 C4,-7.5 -4,-7.5 -4,-7.5 C-4,-7.5 -5,-7.5 -5,-7.5 C-5,-7.5 -7.329999923706055,-7.5 -7.329999923706055,-7.5 C-7.769999980926514,-7.5 -8.1899995803833,-7.309999942779541 -8.468999862670898,-6.980000019073486 C-8.758999824523926,-6.650000095367432 -8.880000114440918,-6.210000038146973 -8.819999694824219,-5.78000020980835 C-8.819999694824219,-5.78000020980835 -7.130000114440918,6.25 -7.130000114440918,6.25 C-7.008999824523926,6.96999979019165 -6.389999866485596,7.5 -5.650000095367432,7.5 C-5.650000095367432,7.5 5.651000022888184,7.5 5.651000022888184,7.5 C6.389999866485596,7.5 7.010000228881836,6.96999979019165 7.139999866485596,6.230000019073486 C7.139999866485596,6.230000019073486 8.821000099182129,-5.769999980926514 8.821000099182129,-5.769999980926514 C8.880000114440918,-6.210000038146973 8.760000228881836,-6.650000095367432 8.470000267028809,-6.980000019073486z"></path></g><g opacity="1" transform="matrix(0,0,0,1,12,4.5)"><path fill="url(#__lottie_element_72)" fill-opacity="1" d=" M-4,2.4749999046325684 C-4,0.2750000059604645 -2.2100000381469727,-1.524999976158142 0,-1.524999976158142 C2.2100000381469727,-1.524999976158142 4,0.2750000059604645 4,2.4749999046325684 C4,2.4749999046325684 4,2.5250000953674316 4,2.5250000953674316 C4,2.5250000953674316 5,2.5250000953674316 5,2.5250000953674316 C5,2.5250000953674316 5,2.4749999046325684 5,2.4749999046325684 C5,-0.2750000059604645 2.759999990463257,-2.5250000953674316 0,-2.5250000953674316 C-2.759999990463257,-2.5250000953674316 -5,-0.2750000059604645 -5,2.4749999046325684 C-5,2.4749999046325684 -5,2.5250000953674316 -5,2.5250000953674316 C-5,2.5250000953674316 -4,2.5250000953674316 -4,2.5250000953674316 C-4,2.5250000953674316 -4,2.4749999046325684 -4,2.4749999046325684z"></path></g></g></g></g><g clip-path="url(#__lottie_element_58)" transform="matrix(1,0,0,1,0,0)" opacity="1" style="display: block;"><g mask="url(#__lottie_element_59)"><g transform="matrix(1,0,0,1,0,0.0019998550415039062)" opacity="1" style="display: block;"><g opacity="1" transform="matrix(1,0,0,1,12,14.524999618530273)"><path fill="rgb(0,0,0)" fill-opacity="1" d=" M8.468999862670898,-6.980000019073486 C8.1899995803833,-7.309999942779541 7.769999980926514,-7.500999927520752 7.330999851226807,-7.500999927520752 C7.330999851226807,-7.500999927520752 5.0269999504089355,-7.500999927520752 5.0269999504089355,-7.500999927520752 C5.0269999504089355,-7.500999927520752 5.000999927520752,-7.500999927520752 5.000999927520752,-7.500999927520752 C5.000999927520752,-7.500999927520752 -4.999000072479248,-7.500999927520752 -4.999000072479248,-7.500999927520752 C-4.999000072479248,-7.500999927520752 -5.0269999504089355,-7.500999927520752 -5.0269999504089355,-7.500999927520752 C-5.0269999504089355,-7.500999927520752 -7.328999996185303,-7.500999927520752 -7.328999996185303,-7.500999927520752 C-7.769000053405762,-7.500999927520752 -8.189000129699707,-7.309999942779541 -8.468999862670898,-6.980000019073486 C-8.758999824523926,-6.64900016784668 -8.880000114440918,-6.210000038146973 -8.819999694824219,-5.7789998054504395 C-8.819999694824219,-5.7789998054504395 -7.130000114440918,6.250999927520752 -7.130000114440918,6.250999927520752 C-7.010000228881836,6.9710001945495605 -6.390999794006348,7.500999927520752 -5.650000095367432,7.500999927520752 C-5.650000095367432,7.500999927520752 5.650000095367432,7.500999927520752 5.650000095367432,7.500999927520752 C6.388999938964844,7.500999927520752 7.008999824523926,6.9710001945495605 7.138999938964844,6.230000019073486 C7.138999938964844,6.230000019073486 8.819999694824219,-5.769999980926514 8.819999694824219,-5.769999980926514 C8.878999710083008,-6.210000038146973 8.758999824523926,-6.64900016784668 8.468999862670898,-6.980000019073486z M6.150000095367432,6.080999851226807 C6.110000133514404,6.320000171661377 5.900000095367432,6.500999927520752 5.650000095367432,6.500999927520752 C5.650000095367432,6.500999927520752 -5.650000095367432,6.500999927520752 -5.650000095367432,6.500999927520752 C-5.900000095367432,6.500999927520752 -6.110000133514404,6.318999767303467 -6.150000095367432,6.099999904632568 C-6.150000095367432,6.099999904632568 -7.828999996185303,-5.919000148773193 -7.828999996185303,-5.919000148773193 C-7.848999977111816,-6.068999767303467 -7.809999942779541,-6.210999965667725 -7.710000038146973,-6.330999851226807 C-7.620999813079834,-6.440999984741211 -7.479000091552734,-6.500999927520752 -7.328999996185303,-6.500999927520752 C-7.328999996185303,-6.500999927520752 -5.0269999504089355,-6.500999927520752 -5.0269999504089355,-6.500999927520752 C-5.0269999504089355,-6.500999927520752 -4.999000072479248,-6.500999927520752 -4.999000072479248,-6.500999927520752 C-4.999000072479248,-6.500999927520752 5.000999927520752,-6.500999927520752 5.000999927520752,-6.500999927520752 C5.000999927520752,-6.500999927520752 5.0269999504089355,-6.500999927520752 5.0269999504089355,-6.500999927520752 C5.0269999504089355,-6.500999927520752 7.330999851226807,-6.500999927520752 7.330999851226807,-6.500999927520752 C7.480999946594238,-6.500999927520752 7.619999885559082,-6.440999984741211 7.710000038146973,-6.330999851226807 C7.809000015258789,-6.210999965667725 7.849999904632568,-6.068999767303467 7.830999851226807,-5.919000148773193 C7.830999851226807,-5.919000148773193 6.150000095367432,6.080999851226807 6.150000095367432,6.080999851226807z"></path></g><g opacity="1" transform="matrix(1,0,0,1,11.930999755859375,5.654000282287598)"><path fill="rgb(0,0,0)" fill-opacity="1" d=" M-5,3.2750000953674316 C-5,3.555000066757202 -4.78000020980835,3.7750000953674316 -4.5,3.7750000953674316 C-4.21999979019165,3.7750000953674316 -4,3.555000066757202 -4,3.2750000953674316 C-4,3.2750000953674316 -4,2.2750000953674316 -4,2.2750000953674316 C-4,2.2750000953674316 -4,1.274999976158142 -4,1.274999976158142 C-4,1.274999976158142 -4,1.225000023841858 -4,1.225000023841858 C-4,-0.9750000238418579 -2.2100000381469727,-2.7750000953674316 0,-2.7750000953674316 C2.2100000381469727,-2.7750000953674316 4,-0.9750000238418579 4,1.225000023841858 C4,1.225000023841858 4,1.2710000276565552 4,1.2710000276565552 C4,1.2710000276565552 4,1.274999976158142 4,1.274999976158142 C4,1.274999976158142 4,2.2750000953674316 4,2.2750000953674316 C4,2.2750000953674316 4,3.2750000953674316 4,3.2750000953674316 C4,3.555000066757202 4.21999979019165,3.7750000953674316 4.5,3.7750000953674316 C4.78000020980835,3.7750000953674316 5,3.555000066757202 5,3.2750000953674316 C5,3.2750000953674316 5,2.2750000953674316 5,2.2750000953674316 C5,2.2750000953674316 5,1.274999976158142 5,1.274999976158142 C5,1.274999976158142 5,1.225000023841858 5,1.225000023841858 C5,-1.524999976158142 2.759999990463257,-3.7750000953674316 0,-3.7750000953674316 C-2.759999990463257,-3.7750000953674316 -5,-1.524999976158142 -5,1.225000023841858 C-5,1.225000023841858 -5,1.274999976158142 -5,1.274999976158142 C-5,1.274999976158142 -5,2.2750000953674316 -5,2.2750000953674316 C-5,2.2750000953674316 -5,3.2750000953674316 -5,3.2750000953674316z"></path></g></g></g></g></g></svg>